<?xml version="1.0" standalone="no"?>
<!DOCTYPE svg PUBLIC "-//W3C//DTD SVG 20010904//EN"
 "http://www.w3.org/TR/2001/REC-SVG-20010904/DTD/svg10.dtd">
<svg version="1.0" xmlns="http://www.w3.org/2000/svg"
 width="348.000000pt" height="492.000000pt" viewBox="0 0 348.000000 492.000000"
 preserveAspectRatio="xMidYMid meet">

<g transform="translate(0.000000,492.000000) scale(0.100000,-0.100000)"
fill="#000000" stroke="none">
<path d="M1700 4228 c-582 -263 -883 -379 -1220 -468 -85 -22 -163 -43 -173
-46 -29 -9 -37 -47 -47 -213 -45 -739 215 -1534 697 -2136 206 -258 489 -518
707 -651 l76 -46 68 37 c144 79 319 223 502 411 436 451 719 961 838 1515 58
265 88 634 74 911 -4 86 -10 160 -14 163 -3 3 -73 23 -154 44 -408 105 -690
209 -1095 404 -97 47 -185 87 -195 90 -11 3 -39 -4 -64 -15z m150 -140 c101
-43 115 -58 78 -82 -23 -14 -50 2 -58 35 l-6 24 -13 -24 c-11 -20 -10 -27 8
-52 15 -20 19 -37 15 -53 -4 -19 1 -32 20 -50 29 -30 52 -33 78 -9 24 22 23
36 -3 23 -28 -16 -49 -5 -49 24 0 16 8 30 23 37 12 6 31 22 42 35 l20 23 52
-22 c29 -13 55 -25 58 -29 3 -3 -25 -64 -62 -135 l-68 -129 -45 11 c-41 10
-45 14 -45 40 0 26 4 30 28 30 32 -1 35 10 6 25 -16 9 -28 9 -50 0 -37 -16
-48 -54 -27 -90 11 -19 12 -32 6 -44 -11 -20 -2 -66 13 -66 6 0 9 8 8 18 -3
35 2 42 31 42 37 0 48 -21 30 -56 l-13 -24 -182 0 -183 0 -12 31 c-16 37 -4
52 36 47 26 -3 29 -6 26 -37 -2 -30 -1 -32 14 -20 12 10 15 23 10 56 -3 23 -1
45 4 48 6 3 10 22 10 40 0 29 -5 37 -31 51 -25 12 -37 14 -55 5 -31 -14 -31
-33 -1 -26 15 4 28 1 36 -9 19 -23 -2 -52 -48 -64 l-41 -10 -34 62 c-46 84
-96 184 -96 194 0 4 25 20 56 35 l56 28 19 -25 c11 -14 28 -28 39 -31 14 -4
20 -15 20 -36 0 -34 -19 -46 -49 -29 -30 16 -27 -6 4 -26 14 -9 32 -13 45 -9
28 9 54 50 47 77 -4 13 2 31 14 46 23 30 24 45 4 62 -12 10 -15 9 -15 -8 0
-41 -59 -54 -74 -16 -4 10 7 20 37 33 23 11 67 30 97 44 30 14 59 26 63 26 4
1 53 -18 107 -41z m-363 -543 l18 -30 225 -3 c124 -1 234 0 245 2 14 4 41 44
84 128 35 68 65 125 67 126 1 2 139 -41 306 -96 167 -55 366 -119 443 -142 77
-23 143 -45 146 -49 8 -9 -8 -295 -26 -461 -55 -500 -170 -863 -364 -1151
-147 -219 -435 -533 -597 -653 -44 -32 -127 -84 -185 -116 l-104 -58 -35 20
c-19 12 -91 58 -160 104 -225 148 -371 293 -514 509 -330 496 -546 1151 -546
1656 0 186 -14 168 163 219 173 49 612 182 672 203 l40 14 51 -96 c29 -53 60
-109 71 -126z"/>
<path d="M1665 4004 c-18 -18 -16 -33 7 -47 35 -22 66 21 36 51 -16 16 -23 15
-43 -4z"/>
<path d="M1785 4004 c-18 -18 -16 -33 7 -47 21 -14 48 -2 48 22 0 30 -34 45
-55 25z"/>
<path d="M1672 3711 c-8 -4 -12 -19 -10 -32 2 -18 9 -24 28 -24 28 0 39 27 20
50 -14 17 -20 18 -38 6z"/>
<path d="M1780 3706 c-27 -33 18 -72 48 -42 13 13 14 20 6 34 -15 23 -38 26
-54 8z"/>
<path d="M1136 3495 c-142 -81 -245 -174 -339 -306 -51 -72 -116 -195 -148
-279 -26 -68 -61 -211 -54 -218 3 -3 85 -36 183 -73 l177 -67 17 45 c20 53 42
79 82 100 27 14 42 14 130 1 15 -2 47 35 134 152 62 85 120 165 129 177 13 19
12 27 -3 70 -45 127 41 212 156 153 37 -19 40 -19 40 -3 0 29 -37 81 -69 97
-67 35 -162 28 -225 -17 -55 -39 -80 -134 -56 -216 9 -32 6 -39 -54 -120 l-63
-86 -62 4 c-97 5 -157 -14 -211 -68 l-47 -47 -45 15 -45 16 22 70 c65 209 169
376 345 555 49 49 88 90 87 90 -1 0 -38 -20 -81 -45z"/>
<path d="M2382 3431 c112 -117 218 -264 264 -366 26 -58 84 -221 84 -236 0 -4
-21 -14 -47 -23 -49 -17 -49 -17 -74 26 -5 10 -31 30 -57 45 -42 25 -57 28
-139 28 l-91 1 -59 80 -59 79 4 90 c3 82 2 93 -20 125 -64 94 -196 117 -283
48 -26 -20 -61 -85 -52 -95 3 -2 20 5 38 16 117 72 219 -48 150 -177 -9 -18 6
-43 120 -199 89 -122 136 -177 147 -176 9 2 35 6 58 9 73 11 140 -39 164 -124
4 -16 13 -26 21 -24 11 3 278 102 340 127 15 6 14 15 -6 98 -69 285 -248 539
-485 689 -128 81 -130 76 -18 -41z"/>
<path d="M1558 2898 c-101 -134 -188 -249 -192 -255 -6 -10 74 -13 383 -13
l390 0 -192 254 c-106 140 -195 255 -198 255 -3 1 -89 -108 -191 -241z m270
60 l62 -78 -141 0 c-109 0 -139 3 -133 13 4 6 34 47 67 90 48 64 62 76 72 65
6 -7 39 -48 73 -90z m-158 -209 l61 -79 -141 0 c-110 0 -140 3 -134 13 4 6 34
47 67 90 46 61 62 76 72 67 7 -6 41 -47 75 -91z m336 -21 l45 -58 -141 0 -141
0 22 33 c13 17 43 59 68 91 l45 59 28 -34 c16 -19 49 -60 74 -91z"/>
<path d="M800 2433 c7 -63 30 -117 58 -132 35 -18 393 -81 462 -81 5 0 10 -10
10 -21 0 -22 -2 -22 -122 -15 -68 4 -165 13 -215 20 -63 8 -93 8 -93 1 1 -24
48 -91 80 -113 33 -23 41 -24 130 -18 52 4 122 13 155 21 76 18 82 18 89 0 6
-17 -43 -45 -187 -105 -80 -34 -86 -38 -70 -52 25 -21 79 -38 123 -38 40 0 67
16 141 87 31 30 51 42 62 37 27 -10 21 -27 -38 -109 -30 -42 -55 -78 -55 -81
0 -11 59 -2 97 15 45 21 59 40 71 98 8 37 10 38 56 44 60 7 80 34 56 78 -6 12
-27 21 -57 26 -102 15 -143 61 -143 161 0 33 6 82 14 108 10 34 11 46 3 43
-12 -3 -71 -85 -79 -108 -7 -21 -285 68 -453 146 -53 25 -97 45 -99 45 -1 0 1
-26 4 -57z"/>
<path d="M1737 2483 c-3 -5 -8 -22 -11 -38 -5 -21 -19 -38 -47 -55 -39 -25
-79 -87 -79 -125 0 -17 1 -17 19 -1 22 20 41 14 41 -12 0 -14 2 -13 13 2 13
17 16 15 41 -28 15 -25 30 -46 34 -46 5 0 18 21 31 47 22 45 24 46 37 28 8
-10 14 -15 14 -9 0 5 4 16 10 24 7 12 12 12 29 -4 21 -19 21 -19 21 4 0 34
-37 93 -75 119 -19 13 -39 38 -45 57 -12 35 -25 50 -33 37z"/>
<path d="M2618 2455 c-97 -50 -207 -92 -342 -131 -65 -19 -120 -33 -121 -32
-41 69 -69 107 -80 112 -8 3 -15 4 -15 3 0 -1 7 -24 15 -51 44 -144 -3 -242
-125 -261 -56 -9 -70 -20 -70 -54 0 -38 17 -51 66 -51 l42 0 12 -50 c15 -62
56 -97 123 -106 53 -8 57 -1 23 35 -13 15 -40 51 -59 82 -27 42 -33 59 -24 68
18 18 31 13 68 -25 62 -66 108 -94 153 -94 43 0 126 32 126 48 0 5 -21 17 -47
27 -75 28 -223 104 -223 115 0 19 23 21 88 6 37 -8 109 -18 159 -22 89 -7 94
-6 132 19 33 22 92 111 80 121 -2 2 -47 -3 -99 -10 -52 -7 -148 -16 -212 -20
-114 -7 -118 -6 -118 13 0 19 10 22 88 33 129 17 312 48 354 60 49 14 78 62
85 140 3 33 2 60 -3 60 -5 -1 -39 -17 -76 -35z"/>
<path d="M1714 2092 c-35 -42 -64 -94 -64 -116 0 -8 -12 -23 -26 -34 l-27 -19
56 -39 c64 -45 80 -85 51 -129 -15 -23 -15 -27 0 -50 19 -28 20 -58 5 -86 -8
-16 -5 -28 12 -56 l22 -36 24 27 c25 30 26 35 14 87 -6 25 -4 41 5 54 17 23
18 57 3 72 -6 6 -9 26 -7 44 2 28 12 40 60 73 l58 40 -27 17 c-17 12 -31 33
-38 59 -9 35 -70 129 -85 129 -3 1 -19 -16 -36 -37z"/>
<path d="M1570 1785 c-17 -30 -36 -58 -42 -61 -6 -4 -37 -6 -67 -5 -31 1 -63
-3 -71 -9 -13 -8 -10 -15 19 -42 22 -22 35 -29 38 -20 6 16 154 17 170 1 8 -8
14 -5 23 10 13 26 6 41 -21 41 -26 0 -24 13 11 62 39 54 40 78 1 78 -25 0 -34
-8 -61 -55z"/>
<path d="M1830 1822 c0 -10 13 -36 30 -58 34 -46 38 -64 11 -64 -27 0 -34 -15
-21 -41 9 -15 15 -18 23 -10 15 15 164 15 169 0 5 -15 40 6 57 34 19 29 -2 39
-73 34 l-59 -3 -40 63 c-34 53 -45 63 -69 63 -20 0 -28 -5 -28 -18z"/>
<path d="M1300 1608 c0 -44 51 -128 126 -205 40 -41 79 -73 86 -71 7 2 30 30
51 61 30 44 44 57 63 57 39 0 64 18 64 46 0 19 -8 28 -35 40 -63 26 -92 19
-127 -31 -18 -25 -36 -45 -40 -45 -5 0 -49 39 -98 86 -79 76 -90 84 -90 62z"/>
<path d="M2120 1564 c-36 -36 -77 -74 -92 -85 l-27 -19 -31 45 c-28 40 -35 45
-70 45 -49 0 -88 -17 -96 -42 -9 -28 23 -58 61 -58 27 0 36 -8 70 -60 21 -33
43 -60 48 -60 19 0 152 147 178 196 29 54 44 104 31 104 -4 0 -37 -30 -72 -66z"/>
</g>
</svg>
