<?xml version="1.0" standalone="no"?>
<!DOCTYPE svg PUBLIC "-//W3C//DTD SVG 20010904//EN"
 "http://www.w3.org/TR/2001/REC-SVG-20010904/DTD/svg10.dtd">
<svg version="1.0" xmlns="http://www.w3.org/2000/svg"
 width="840.000000pt" height="859.000000pt" viewBox="0 0 840.000000 859.000000"
 preserveAspectRatio="xMidYMid meet">

<g transform="translate(0.000000,859.000000) scale(0.100000,-0.100000)"
fill="#000000" stroke="none">
<path d="M5010 8559 c-210 -24 -399 -78 -590 -170 -201 -97 -357 -206 -505
-354 -332 -331 -523 -722 -617 -1265 -7 -40 -14 -278 -17 -610 l-6 -545 -722
-3 -723 -2 0 -695 0 -695 725 0 725 0 0 -2095 0 -2095 800 0 800 0 0 2095 0
2095 845 0 845 0 0 695 0 695 -845 0 -846 0 3 558 4 557 27 75 c32 88 106 193
165 234 81 56 87 56 819 56 l673 0 0 740 0 740 -742 -1 c-409 -1 -777 -5 -818
-10z"/>
</g>
</svg>
