<?xml version="1.0" standalone="no"?>
<!DOCTYPE svg PUBLIC "-//W3C//DTD SVG 20010904//EN"
 "http://www.w3.org/TR/2001/REC-SVG-20010904/DTD/svg10.dtd">
<svg version="1.0" xmlns="http://www.w3.org/2000/svg"
 width="840.000000pt" height="645.000000pt" viewBox="0 0 840.000000 645.000000"
 preserveAspectRatio="xMidYMid meet">

<g transform="translate(0.000000,645.000000) scale(0.100000,-0.100000)"
fill="#000000" stroke="none">
<path d="M3745 4883 c-198 -16 -407 -86 -555 -186 -66 -45 -186 -163 -235
-232 -90 -126 -158 -296 -191 -473 -10 -53 -18 -156 -19 -262 -4 -216 15 -344
96 -669 3 -9 -10 -19 -31 -27 -19 -7 -80 -29 -135 -49 -116 -42 -270 -120
-376 -191 -89 -59 -256 -221 -292 -284 -58 -101 -60 -186 -5 -241 l32 -31 156
6 c183 8 296 18 605 53 448 50 556 26 1103 -244 323 -159 357 -169 567 -160
72 3 157 13 190 21 140 38 256 119 296 206 16 35 27 49 38 46 9 -3 81 -15 161
-28 206 -32 532 -32 702 0 286 54 490 151 649 311 131 131 198 273 206 436 10
180 -47 318 -186 455 -71 70 -104 95 -189 138 -57 28 -111 52 -122 52 -10 0
-21 4 -24 9 -3 4 -33 14 -66 21 -91 19 -204 8 -355 -35 -17 -5 -25 4 -49 52
-224 459 -606 859 -1040 1089 -185 97 -383 166 -576 199 -85 14 -280 24 -355
18z m50 -708 c239 -61 431 -270 506 -550 31 -114 31 -335 0 -450 -21 -79 -93
-238 -129 -284 l-19 -23 -94 35 c-290 109 -631 171 -905 166 -51 -1 -96 1
-102 5 -5 3 -20 43 -33 88 -20 71 -24 106 -24 238 0 131 4 167 23 233 82 285
269 485 507 543 70 17 200 17 270 -1z"/>
<path d="M3493 3988 c-22 -40 -122 -217 -222 -392 -99 -176 -181 -322 -181
-325 0 -8 108 -66 113 -60 3 2 65 111 138 241 74 130 139 237 144 238 6 0 30
-80 55 -179 25 -99 48 -182 51 -186 4 -3 56 64 115 149 60 85 112 155 117 156
4 0 7 -12 8 -27 0 -16 10 -125 22 -243 l22 -215 60 4 c33 1 62 5 66 6 6 4 -75
833 -82 840 -3 2 -62 -79 -133 -181 -71 -101 -132 -184 -135 -184 -4 0 -30 97
-60 215 -29 118 -54 215 -55 215 -1 0 -20 -33 -43 -72z"/>
</g>
</svg>
