<?xml version="1.0" standalone="no"?>
<!DOCTYPE svg PUBLIC "-//W3C//DTD SVG 20010904//EN"
 "http://www.w3.org/TR/2001/REC-SVG-20010904/DTD/svg10.dtd">
<svg version="1.0" xmlns="http://www.w3.org/2000/svg"
 width="1280.000000pt" height="849.000000pt" viewBox="0 0 1280.000000 849.000000"
 preserveAspectRatio="xMidYMid meet">
<g transform="translate(0.000000,849.000000) scale(0.100000,-0.100000)"
fill="#000000" stroke="none">
<path d="M7855 8478 c-27 -5 -87 -16 -133 -24 -116 -21 -220 -56 -337 -114
-425 -208 -687 -569 -771 -1064 -25 -148 -16 -380 20 -501 32 -112 106 -260
195 -396 64 -97 98 -140 225 -284 31 -35 46 -59 40 -65 -6 -6 -142 -6 -369 0
-793 22 -1136 31 -1725 45 -2882 69 -3366 72 -3834 19 -529 -59 -797 -207
-959 -529 -39 -78 -81 -208 -96 -300 -22 -133 -65 -540 -80 -765 -6 -80 -16
-221 -22 -315 -12 -176 -9 -358 10 -600 38 -486 101 -773 223 -1020 115 -233
263 -369 468 -431 47 -14 121 -43 165 -64 101 -49 161 -65 327 -84 253 -30
395 -37 857 -43 537 -7 971 6 1676 47 246 15 699 46 880 60 478 38 812 70
1150 111 456 54 718 76 1028 86 175 5 217 4 217 -7 0 -7 -24 -52 -54 -99 -151
-239 -235 -473 -236 -652 -1 -387 294 -885 671 -1134 97 -64 372 -199 486
-239 262 -91 623 -133 831 -97 305 52 496 151 857 446 251 205 485 425 1100
1035 613 608 886 870 1325 1271 334 305 479 462 609 660 160 240 232 513 191
716 -5 26 -17 91 -26 143 -8 52 -31 143 -50 201 -39 122 -196 445 -274 564
-139 212 -315 396 -610 638 -225 185 -409 343 -670 577 -444 396 -1324 1207
-1575 1451 -215 209 -292 275 -430 365 -270 177 -579 306 -855 359 -256 48
-332 54 -445 33z"/>
</g>
</svg>
