<?xml version="1.0" standalone="no"?>
<!DOCTYPE svg PUBLIC "-//W3C//DTD SVG 20010904//EN"
 "http://www.w3.org/TR/2001/REC-SVG-20010904/DTD/svg10.dtd">
<svg version="1.0" xmlns="http://www.w3.org/2000/svg"
 width="920.000000pt" height="920.000000pt" viewBox="0 0 920.000000 920.000000"
 preserveAspectRatio="xMidYMid meet">

<g transform="translate(0.000000,920.000000) scale(0.100000,-0.100000)"
fill="#000000" stroke="none">
<path d="M4415 8829 c-663 -31 -1284 -285 -1855 -759 -144 -120 -413 -397
-543 -559 -456 -570 -809 -1301 -908 -1878 -51 -300 8 -763 135 -1064 5 -12
-7 -23 -50 -45 -155 -78 -279 -277 -330 -528 -21 -105 -29 -342 -15 -471 39
-358 185 -716 421 -1030 171 -227 367 -360 551 -372 l77 -6 22 -66 c64 -193
197 -414 338 -563 188 -197 407 -338 796 -512 92 -42 250 -124 350 -183 397
-234 594 -308 908 -342 123 -14 386 -14 503 -1 313 36 502 107 884 330 107 62
290 157 405 210 307 140 467 235 643 382 214 178 389 447 477 731 4 13 17 17
58 17 215 1 449 175 658 491 264 400 390 880 336 1285 -33 250 -100 409 -226
534 -41 41 -94 84 -117 94 -24 11 -43 23 -43 28 0 5 13 47 29 92 37 103 75
275 97 431 24 173 24 479 0 610 -52 286 -153 577 -316 910 -369 754 -918 1388
-1540 1777 -223 139 -419 231 -664 313 -357 118 -684 162 -1081 144z m380
-369 c929 -76 1766 -664 2382 -1672 74 -122 228 -424 285 -563 94 -226 171
-481 197 -652 31 -204 -5 -555 -80 -786 -42 -129 -98 -247 -118 -247 -23 0
-161 -46 -227 -75 -30 -13 -54 -20 -54 -16 0 38 91 262 140 344 109 183 163
377 158 567 l-3 115 -57 115 c-221 451 -653 847 -1188 1091 -656 299 -1512
400 -2365 278 -990 -141 -1797 -651 -2152 -1359 -70 -138 -79 -185 -64 -325
19 -187 72 -351 160 -491 36 -57 108 -234 125 -308 6 -25 5 -28 -11 -21 -46
19 -182 65 -219 75 -38 9 -43 15 -77 87 -100 215 -144 388 -167 663 -16 201
11 371 105 660 224 685 677 1377 1194 1824 599 517 1298 756 2036 696z m295
-1844 c718 -92 1260 -329 1661 -726 129 -128 253 -292 317 -420 43 -87 47
-101 45 -160 -1 -37 -13 -100 -28 -147 l-26 -83 -84 65 c-415 316 -937 553
-1480 670 -313 68 -585 96 -935 95 -493 0 -884 -60 -1333 -206 -393 -129 -830
-358 -1103 -580 -29 -24 -55 -40 -57 -36 -15 24 -48 152 -53 207 -7 64 -6 66
50 178 139 277 412 552 747 752 343 205 775 341 1234 389 83 9 164 18 180 20
17 2 190 2 385 1 252 -2 391 -8 480 -19z m-276 -1076 c229 -16 496 -59 690
-111 l41 -11 -60 -23 c-189 -71 -393 -249 -513 -449 -56 -91 -55 -179 0 -242
42 -48 77 -64 139 -64 78 0 121 29 177 120 143 230 368 354 582 321 115 -18
237 -72 378 -168 81 -54 128 -68 184 -52 55 14 94 43 114 82 9 18 18 34 20 36
6 6 239 -144 298 -192 l30 -24 -42 -129 c-82 -252 -109 -445 -91 -644 6 -63
35 -261 65 -440 78 -469 105 -674 111 -855 13 -387 -85 -690 -296 -919 -170
-185 -341 -295 -741 -476 -137 -62 -218 -105 -405 -218 -315 -190 -469 -246
-735 -271 -129 -12 -384 -5 -500 13 -215 34 -335 83 -620 253 -201 120 -295
169 -525 275 -281 129 -443 234 -591 383 -231 234 -335 514 -334 907 0 208 16
335 142 1093 62 378 46 600 -67 929 -18 55 -31 103 -27 106 45 33 302 201 313
204 8 3 26 -12 44 -36 43 -59 87 -80 157 -76 49 4 68 12 141 60 265 177 460
208 667 106 102 -51 214 -158 274 -262 22 -37 55 -79 73 -93 36 -28 100 -39
157 -29 71 13 135 98 136 177 0 78 -101 229 -247 369 -95 92 -173 145 -291
196 l-74 32 54 15 c84 24 292 64 425 82 248 34 496 42 747 25z m-3301 -1345
c162 -28 324 -102 430 -195 47 -42 48 -43 42 -89 -4 -25 -31 -201 -61 -391
-88 -555 -96 -625 -98 -832 0 -104 -4 -188 -7 -188 -3 0 -37 22 -75 49 -273
191 -494 627 -534 1049 -23 246 32 499 127 583 39 34 56 35 176 14z m6276 -10
c40 -34 86 -128 108 -223 25 -109 25 -402 0 -522 -46 -213 -148 -460 -262
-630 -60 -90 -189 -223 -265 -273 -30 -21 -58 -37 -62 -37 -5 0 -5 37 -2 83
12 150 -18 411 -105 942 -21 132 -45 283 -52 336 l-12 97 38 33 c121 107 288
183 460 209 95 14 122 12 154 -15z"/>
<path d="M4741 7973 l-181 -188 -178 185 -178 184 -86 -159 c-171 -320 -257
-483 -338 -644 l-82 -165 24 -17 c12 -10 81 -52 153 -94 92 -53 131 -71 136
-63 4 7 55 173 113 368 59 195 109 363 112 373 3 9 8 17 12 17 4 -1 77 -81
162 -180 85 -98 160 -179 165 -179 6 0 73 79 150 175 77 96 142 174 145 174 3
0 47 -136 99 -303 52 -166 106 -338 120 -382 13 -44 26 -82 27 -84 5 -6 304
191 304 200 0 5 -31 68 -69 141 -37 73 -148 289 -245 481 -98 191 -179 347
-181 347 -2 0 -85 -84 -184 -187z"/>
<path d="M3473 4429 c-48 -24 -88 -70 -127 -146 -38 -77 -56 -164 -56 -283 0
-174 51 -315 144 -397 l43 -38 -24 -35 c-38 -54 -98 -178 -121 -250 -34 -105
-44 -178 -40 -298 3 -101 1 -112 -14 -112 -29 0 -250 76 -331 113 -150 69
-296 184 -329 258 -7 16 -17 28 -23 26 -18 -6 -74 -130 -91 -202 -26 -106 -31
-390 -9 -474 23 -89 58 -155 116 -216 57 -60 119 -97 206 -121 60 -16 63 -19
69 -53 11 -60 52 -171 81 -220 36 -61 108 -137 158 -166 128 -74 338 -74 483
-1 l45 23 91 -92 c149 -150 271 -208 436 -208 113 0 217 30 318 93 l62 39 52
-30 c85 -50 219 -90 323 -96 76 -5 104 -2 161 15 102 32 188 86 288 185 l90
87 43 -20 c99 -47 278 -66 374 -40 184 50 313 210 364 452 4 22 11 28 33 28
42 0 142 52 192 101 62 60 105 125 138 206 26 65 27 76 26 238 0 140 -4 186
-22 259 -20 79 -60 177 -82 199 -4 5 -48 -31 -97 -80 -55 -54 -120 -106 -169
-136 -89 -52 -258 -124 -370 -155 l-71 -20 5 97 c8 177 -40 365 -133 520 l-52
86 47 45 c184 175 186 612 4 780 -52 48 -80 60 -140 60 -153 0 -267 -193 -267
-452 l0 -107 -86 43 c-112 57 -232 98 -361 127 -140 30 -409 33 -545 6 -131
-27 -267 -73 -378 -128 -55 -27 -100 -49 -100 -49 -1 0 -2 57 -2 128 0 147
-20 223 -84 318 -73 109 -170 142 -268 93z m1288 -724 c343 -60 620 -284 695
-563 25 -94 21 -234 -11 -328 -175 -522 -948 -722 -1465 -379 -103 68 -210
187 -259 286 -92 188 -92 359 0 546 107 216 355 386 636 437 104 19 301 19
404 1z"/>
</g>
</svg>
